<svg width="100" height="100" viewBox="0 0 100 100" fill="none" xmlns="http://www.w3.org/2000/svg">
<circle cx="50" cy="50" r="48.5" stroke="#FF2A6C" stroke-width="3"/>
<path d="M57.624 32V66.56C57.624 68.416 57.448 70.048 57.096 71.456C56.744 72.896 56.168 74.096 55.368 75.056C54.6 76.016 53.592 76.736 52.344 77.216C51.096 77.696 49.56 77.936 47.736 77.936C44.76 77.936 42.536 77.328 41.064 76.112C39.592 74.896 38.856 73.216 38.856 71.072C38.856 70.496 38.92 69.84 39.048 69.104C39.208 68.368 39.512 67.68 39.96 67.04C40.408 66.368 41.016 65.824 41.784 65.408C42.584 64.96 43.64 64.736 44.952 64.736C45.336 64.736 45.752 64.784 46.2 64.88C46.68 64.944 47.128 65.152 47.544 65.504C47.96 65.824 48.312 66.304 48.6 66.944C48.888 67.584 49.032 68.48 49.032 69.632C48.52 69.216 48.072 68.944 47.688 68.816C47.304 68.688 46.856 68.624 46.344 68.624C45.16 68.624 44.328 68.88 43.848 69.392C43.4 69.904 43.176 70.576 43.176 71.408C43.176 72.72 43.592 73.728 44.424 74.432C45.256 75.168 46.28 75.536 47.496 75.536C47.944 75.536 48.376 75.456 48.792 75.296C49.208 75.168 49.56 74.88 49.848 74.432C50.168 74.016 50.408 73.424 50.568 72.656C50.76 71.888 50.856 70.88 50.856 69.632V35.36C49.384 36.032 48.2 37.056 47.304 38.432C46.408 39.776 45.96 41.552 45.96 43.76C45.96 44.688 46.04 45.472 46.2 46.112C46.36 46.752 46.536 47.28 46.728 47.696C46.92 48.08 47.096 48.384 47.256 48.608C47.448 48.832 47.576 49.008 47.64 49.136C45.72 49.136 44.2 48.688 43.08 47.792C41.96 46.896 41.4 45.488 41.4 43.568C41.4 41.936 41.8 40.416 42.6 39.008C43.4 37.6 44.456 36.384 45.768 35.36C47.112 34.304 48.648 33.488 50.376 32.912C52.104 32.304 53.88 32 55.704 32H57.624Z" fill="#05D9E7"/>
</svg>
