<svg width="136" height="101" viewBox="0 0 136 101" fill="none" xmlns="http://www.w3.org/2000/svg">
<path fill-rule="evenodd" clip-rule="evenodd" d="M53.3355 99.9281C49.5438 101.131 45.2289 100.229 42.2218 97.2218L3.77819 58.7782C-0.517578 54.4824 -0.517589 47.5176 3.77818 43.2218L42.2218 4.77818C43.2511 3.74888 44.4337 2.96621 45.696 2.43017C48.4459 0.882728 51.62 4.57764e-05 55.0002 4.57764e-05H117C127.494 4.57764e-05 136 8.50664 136 19V81C136 91.4935 127.494 100 117 100H55.0002C54.4393 100 53.8841 99.9757 53.3355 99.9281Z" fill="url(#paint0_linear_1_30)"/>
<path d="M64.72 28.712C65.1467 29.0533 65.36 29.5013 65.36 30.056C65.36 30.6107 65.168 31.08 64.784 31.464H58.512V65.448C58.512 70.5253 57.616 74.408 55.824 77.096C54.032 79.8267 51.536 81.192 48.336 81.192C45.904 81.192 44.0267 80.36 42.704 78.696C41.3813 77.032 40.72 74.728 40.72 71.784C40.72 68.7973 41.1467 66.0667 42 63.592C42.8107 61.0747 43.92 58.8987 45.328 57.064C47.6747 53.992 50.1493 51.4747 52.752 49.512V31.464H47.568C46.032 31.464 45.264 30.8453 45.264 29.608C45.264 29.0533 45.456 28.584 45.84 28.2L63.056 28.136C63.7813 28.136 64.336 28.328 64.72 28.712ZM48.272 78.696C51.2587 78.696 52.752 74.216 52.752 65.256V52.328C46.5653 58.0453 43.472 64.488 43.472 71.656C43.472 74.0027 43.9413 75.752 44.88 76.904C45.8187 78.0987 46.9493 78.696 48.272 78.696ZM71.007 63.208C71.007 62.6107 71.199 62.12 71.583 61.736C71.9243 61.352 72.351 61.16 72.863 61.16C73.3323 61.16 73.695 61.288 73.951 61.544C73.951 63.8907 74.6977 65.9173 76.191 67.624C77.727 69.3307 79.7537 70.6107 82.271 71.464V30.248C78.0897 31.3147 75.999 33.064 75.999 35.496C75.999 36.3067 76.127 37.096 76.383 37.864C76.127 38.376 75.551 38.632 74.655 38.632C73.759 38.632 72.991 38.312 72.351 37.672C71.711 37.032 71.391 36.1787 71.391 35.112C71.391 33.192 72.351 31.5067 74.271 30.056C76.2337 28.6053 78.9003 27.5387 82.271 26.856V23.912C82.271 22.632 82.591 21.672 83.231 21.032C83.871 20.3493 84.6603 20.008 85.599 20.008C86.5377 20.008 87.3483 20.3067 88.031 20.904V26.216C88.4577 26.1733 89.0977 26.152 89.951 26.152C97.0337 26.152 102.815 28.1573 107.295 32.168C109.514 34.216 111.242 36.9467 112.479 40.36C113.759 43.7307 114.399 47.656 114.399 52.136C114.399 59.9013 112.095 65.7893 107.487 69.8C102.922 73.768 96.8417 75.752 89.247 75.752C83.487 75.752 79.007 74.4933 75.807 71.976C72.607 69.4587 71.007 66.536 71.007 63.208ZM90.271 29.288L88.287 29.352V72.552H89.247C95.0923 72.552 99.7643 70.9307 103.263 67.688C106.762 64.4453 108.511 59.2187 108.511 52.008C108.511 44.7547 106.868 39.1653 103.583 35.24C100.298 31.272 95.8603 29.288 90.271 29.288Z" fill="white"/>
<defs>
<linearGradient id="paint0_linear_1_30" x1="68.2783" y1="4.57764e-05" x2="68.2783" y2="100.444" gradientUnits="userSpaceOnUse">
<stop stop-color="#14A6A5"/>
<stop offset="1" stop-color="#41941A" stop-opacity="0.25"/>
</linearGradient>
</defs>
</svg>
